<svg id="Layer_1" data-name="Layer 1" xmlns="http://www.w3.org/2000/svg" viewBox="0 0 60 60"><defs><style>.cls-1{fill:{{ settings.color_body_text }};}</style></defs><path class="cls-1" d="M36,6A30,30,0,0,0,25.07,63.94a28.76,28.76,0,0,1,.1-8.61c0.54-2.34,3.52-14.91,3.52-14.91a10.83,10.83,0,0,1-.9-4.45c0-4.17,2.42-7.29,5.43-7.29,2.56,0,3.8,1.92,3.8,4.23,0,2.57-1.64,6.42-2.48,10A4.36,4.36,0,0,0,39,48.31c5.33,0,9.43-5.62,9.43-13.74,0-7.18-5.16-12.21-12.53-12.21-8.54,0-13.55,6.4-13.55,13a11.67,11.67,0,0,0,2.23,6.85,0.9,0.9,0,0,1,.21.86c-0.23.95-.73,3-0.83,3.4s-0.43.67-1,.4c-3.75-1.74-6.09-7.22-6.09-11.62,0-9.46,6.88-18.15,19.82-18.15,10.41,0,18.49,7.42,18.49,17.33,0,10.34-6.52,18.66-15.57,18.66-3,0-5.9-1.58-6.88-3.44,0,0-1.5,5.73-1.87,7.13a33.53,33.53,0,0,1-3.73,7.86A30,30,0,1,0,36,6Z" transform="translate(-6 -6)"/></svg>