<svg id="Layer_1" data-name="Layer 1" xmlns="http://www.w3.org/2000/svg" viewBox="0 0 68.91 56"><defs><style>.cls-1{fill:{{ settings.color_body_text }};}</style></defs><title>Untitled-4</title><path class="cls-1" d="M23.22,64c26,0,40.22-21.54,40.22-40.22,0-.61,0-1.22,0-1.83a28.76,28.76,0,0,0,7.05-7.32,28.22,28.22,0,0,1-8.12,2.23A14.19,14.19,0,0,0,68.55,9a28.33,28.33,0,0,1-9,3.43A14.15,14.15,0,0,0,35.48,25.36,40.14,40.14,0,0,1,6.34,10.59a14.15,14.15,0,0,0,4.38,18.87,14,14,0,0,1-6.4-1.77c0,0.06,0,.12,0,0.18A14.14,14.14,0,0,0,15.66,41.73,14.12,14.12,0,0,1,9.27,42a14.15,14.15,0,0,0,13.21,9.82A28.37,28.37,0,0,1,4.92,57.85a28.78,28.78,0,0,1-3.37-.2A40,40,0,0,0,23.22,64" transform="translate(-1.55 -8)"/></svg>