<svg id="Layer_1" data-name="Layer 1" xmlns="http://www.w3.org/2000/svg" viewBox="0 0 60 60"><defs><style>.cls-1{fill: {{ settings.color_body_text }};}</style></defs><path class="cls-1" d="M9.31,66A3.31,3.31,0,0,1,6,62.69V9.31A3.31,3.31,0,0,1,9.31,6H62.69A3.31,3.31,0,0,1,66,9.31V62.69A3.31,3.31,0,0,1,62.69,66H9.31ZM47.4,66V42.77h7.8l1.17-9.06h-9V27.93c0-2.62.73-4.41,4.49-4.41h4.8v-8.1a64.17,64.17,0,0,0-7-.36C42.78,15.06,38,19.28,38,27v6.68H30.23v9.06H38V66H47.4Z" transform="translate(-6 -6)"/></svg>