<svg id="Layer_1" data-name="Layer 1" xmlns="http://www.w3.org/2000/svg" viewBox="0 0 60 60"><defs><style>.cls-1{fill:{{ settings.color_body_text }};}</style></defs><path class="cls-1" d="M36,11.41c8,0,9,0,12.12.17a16.6,16.6,0,0,1,5.57,1,9.93,9.93,0,0,1,5.69,5.69,16.6,16.6,0,0,1,1,5.57C60.56,27,60.59,28,60.59,36s0,9-.17,12.12a16.6,16.6,0,0,1-1,5.57,9.93,9.93,0,0,1-5.69,5.69,16.6,16.6,0,0,1-5.57,1C45,60.56,44,60.59,36,60.59s-9,0-12.12-.17a16.6,16.6,0,0,1-5.57-1,9.93,9.93,0,0,1-5.69-5.69,16.6,16.6,0,0,1-1-5.57C11.44,45,11.41,44,11.41,36s0-9,.17-12.12a16.6,16.6,0,0,1,1-5.57,9.93,9.93,0,0,1,5.69-5.69,16.6,16.6,0,0,1,5.57-1C27,11.44,28,11.41,36,11.41M36,6c-8.15,0-9.17,0-12.37.18a22,22,0,0,0-7.28,1.39,15.34,15.34,0,0,0-8.77,8.77,22,22,0,0,0-1.39,7.28C6,26.83,6,27.85,6,36s0,9.17.18,12.37a22,22,0,0,0,1.39,7.28,15.34,15.34,0,0,0,8.77,8.77,22,22,0,0,0,7.28,1.39C26.83,66,27.85,66,36,66s9.17,0,12.37-.18a22,22,0,0,0,7.28-1.39,15.34,15.34,0,0,0,8.77-8.77,22,22,0,0,0,1.39-7.28C66,45.17,66,44.15,66,36s0-9.17-.18-12.37a22,22,0,0,0-1.39-7.28,15.34,15.34,0,0,0-8.77-8.77,22,22,0,0,0-7.28-1.39C45.17,6,44.15,6,36,6h0Z" transform="translate(-6 -6)"/><path class="cls-1" d="M36,20.59A15.41,15.41,0,1,0,51.41,36,15.41,15.41,0,0,0,36,20.59ZM36,46A10,10,0,1,1,46,36,10,10,0,0,1,36,46Z" transform="translate(-6 -6)"/><circle class="cls-1" cx="46.01" cy="13.99" r="3.6"/></svg>